<svg xmlns="http://www.w3.org/2000/svg" viewBox="0 0 689 402"><style>.state .state__label{dominant-baseline:middle}.state-box__background,.state__path{cursor:pointer;transition:fill .25s ease 0s;fill:#28507c;stroke:#fff;stroke-width:1px}.state-box__background{width:40px;height:22px;stroke:transparent}.state .state__label,.state-boxes text{fill:#fff;text-anchor:middle;font-size:12px;cursor:pointer}</style><g class="states"><g class="state state-AL"><path class="state__path" d="M469.5 307.4l-11.2 1.4-21.6 2 .3 2.7 2.9 1.8-.9 6-3.1.5-2.5-2.9.2-2.1-2.3-.2v4.5l-3.7-.2-.6-7.4-1.8-11-.3-10 .5-4.8-.2-13.3.7-13-.2-7.5-1-1.5 30.8-2.8 3.5 12.5 3.9 14.7 2.6 7 1.4 1.2 1.4 4.4-1.6 1.5-.1 6.6 1 .7.3 7z"/><text class="state__label" x="444" y="283.7" dx="0" dy="0">AL</text></g><g class="state state-AR"><path class="state__path" d="M405.3 239l1 1.7-3.3 2.2.2 3-2 1 .5 3.4-1 3.5-1.3.4 1 1.4-2.1 1-2 3.8.6 2.6-4.5 4.2-1.9 6.7-1.2 2.1 1.4 2 .7 4.4-.8 2-12.7.5-22.5.5-.2-7.9-4.3-.2-1-1-.2-15 .4-3.1-.1-9.6-1-3.4-1.4-11.3 24-.6 28.2-1.4 1.3 1.6-.7 2.4-2.7 3.6z"/><text class="state__label" x="373.9" y="257" dx="0" dy="0">AR</text></g><g class="state state-DC"><path class="state__path" d="M545.6 178.4l-1.6-1.8 2.5.2z"/></g><g class="state state-FL"><path class="state__path" d="M439 321.3l.9-6-3-1.8-.2-2.6 21.6-2 11.2-1.5 2.3 4 33.1-2.2 1 2.9 2-1.5-1.1-4.3.7-1.2 7 .6 1.4 6.3 2.7 5.2.4 2.4 5 8 6.3 7.1 1.2 7.2 7.7 12.2 2.2 4.7.9 5v5.3l.8 5-2.3 4.3-.2 4.3-5 2.5-4.8.4-.7-4.4-3.2-4.4-2.6-1.2-2.2 1-1.2-1.2-3-6.5-2.9-.4.4-4.4-1.4-2.6v2.7l-1.4.6-5.5-7.8-2.2-2.1 3.6-5-2-.4-2 2.5-1.6-1.5-.3-5.5 1.3-4.3-1.4-6.8-1.8-2.9-3.2.8-2.9-4.1-2.4-1-.3-2.3-3.2-2.7-5-2.6-4.8 1.8.7 1.8h-2.3l-5.6 3.6-4 .8-.8-3-7.8-4-4.8-1.6h-4.5zm87.1 72.3l2.5-.1-5.1 2.3z"/><text class="state__label" x="506.1" y="337.7" dx="1%" dy="0">FL</text></g><g class="state state-GA"><path class="state__path" d="M514.5 305.7l-7-.6-.7 1.2 1.1 4.3-2 1.5-1-2.9-33 2.3-2.4-4-1.6-2.3-.3-7-1-.7.1-6.6 1.6-1.5-1.4-4.4-1.4-1.1-2.6-7L459 262l-3.5-12.5 15.3-1.8 14-2-2 3.5.1 1.5 4.3 2.6 1.7-.3 2.4 4.6 2 2.4 3.4 1.5 2.2 3.1 3.8 1.8 2.4 4.3 3.3 1.1 2.3 6.2 2.4.8 1.7 2.8.5 3 2.8.6 1 .3-2.7 3.1-.3 4-2.1 6.7z"/><text class="state__label" x="485.8" y="281" dx="0" dy="0">GA</text></g><g class="state state-HI"><path class="state__path" d="M159.6 346.3h1v3.7l-1 1.2-3-.4-2-2.3 3-2.3zm18.8 8.5l1-1 2 3.5 2.4 3-4.4-.9-1.5.5-3-4zm10.9 6l8 1.5-3 1.2-6-.8zm4 4.5l2.4 1-2.5 1.4zm4.9-1.4l1.5 1.8 3-.8 4.4 2.3-.4 1.9-5.5 1.1-.5-3-3-1zm11.5 11.3l3 1.8 4 1.2 2.5 2.4v2.2l4 2.7-1.5 2.6-4.5 1.4-4 2-1.4 3.1-3.6-2.3V388l-2-6 3-2.7-1-3.4z"/><text class="state__label" x="203.2" y="375.9" dx="-2%" dy="2%" display="block" font-size="12" text-anchor="middle" dominant-baseline="middle" cursor="pointer">HI</text></g><g class="state state-IL"><path class="state__path" d="M423 210.8l-1.2 1.7 1.1 3.2-4.5 1.4.8 4.4-1.2.6-4.8-2-2.7 3.2 1 .7-4.5-3 .7-2.8-1.4-1.8-.2-2.9-5.1-2.2-.1-1.4-3.4-1.6-1.9-3.5 2.2-4.5.2-3.3-4.1-1.4-1.2 1.4-1.3-1.9-.2-3-8-7.4-1.5-4.1-.2-4.5.8-1.1.6-3.5 2.3-.8.3-2.6 1.5-1.3-.1-3-1.7-1.4.3-3 4.2-.9 3.5-2 1.7-4-.3-4-2.8-1.5-2.5-4 18.1-1 12.4-1v4l1.7 2.1 2 5.3 3.1 35.2-.9 3.5 1.9 2.1.3 3.8-2.5 3.8-1.7 5-1 1.4z"/><text class="state__label" x="407.3" y="178.6" dx="0" dy="0">IL</text></g><g class="state state-KS"><path class="state__path" d="M347.5 226.5h-33l-23.9-.7-29.6-1.3 2.8-44.8 26 1.4 19.3.5 30.1.2 1.6 1.9 2.5-.4-2 5.5 2.4 2.5.9 2.4 2.4 1z"/><text class="state__label" x="304.2" y="204" dx="0" dy="0">KS</text></g><g class="state state-KY"><path class="state__path" d="M475.4 223l-7 1.1-12.2 1-6.7.8-7.2.2-15.8 1.9-2.6-.6.6 2.7-16 1.2.4-1.9 2 .2.5-5.6-.9-.7 2.7-3.2 4.8 2 1.2-.6-.8-4.4 4.5-1.4-1.1-3.2 1.1-1.7 1.1-1.8 4.2.5-.6-1.7 6.4 2.2.3-1.8 2.8-1.5.5 1.3 2.8-.7.1-3 3.5 1.3 2.9-.3.8-4.2 4-4-.7-2.7h3l4.2-1.9-.5-4.7 4.4-.3 2.5 3.8 7.2 1h5.8l2.5-2.1.8 2.6 3.2 1.7.5 3.5 1.8 4 2.5 3 4 1.6-3.5 4.5-4.3 2.9-1.1 3.7-2.5.8-.1 1.7zm-67.7 8.4h-.8.8z"/><text class="state__label" x="454.8" y="211.7" dx="0" dy="0">KY</text></g><g class="state state-LA"><path class="state__path" d="M359.2 334.5l-1.4-1.4 2.6-4-.2-8 1.8-3 .3-5.7-1.9-1.7-.5-3.1-1.4-.6v-3.6l-2.8-3-.3-15 22.5-.5 12.7-.5 1.4 1.5-1 4.1 2.1-.1-1.6 2.1 2.7 2-3 3.3 1.9.3-2 3-1.8.9-.7 4.4-1.3.4.1 3.9-1.2 2.5 2.8 1.4 21.2-1.3-1.2 3.2.7 3.8 1.4.8 1.2 3.7 1.4.5-4.4 2.9 3.8 1.6-.1-1.9 4.2 1.9-1.6 2.5-3.3-.6-.2 3.6 9 3.6-1.6 3.4-4.4-2.9-4.7-1-.1-2.5-2.3.3.2 3.7-1.7 1.7-2-2.2h-3.7l-.8 2.4-2.2 1.3-1-1.6-5.7-2 1.8-1-1-1.7-3.3-.5-1.5-3-2.3-1-4.5 1.8 1.4 1.7-3.2 1-5.5-1-5.6-2.2h-3.7zm58.3-7.1l-1.4-.6 1.7-2zm-32.5 9.4l-2.8-1.3 1.3-1 2.8 1.2z"/><text class="state__label" x="381.9" y="313.6" dx="-1%" dy="0">LA</text></g><g class="state state-ME"><path class="state__path" d="M598.8 100.7l-4.1-3.5-3.5-12.8-2.6-8.2-2.5-6.5 2.9.5v-4.3l2.7-4.1.5-2.4L591 57l-.1-4.4 1.2-1.2-.5-4.2 4.3-13h1.8l.8 2.6 1.6.5 5.9-4.4 5.3 2.6 6 19.6 3.2.5 1.9 4.7 1.5 1.3 2-1.2 3.4 4.6-2.3 3.9-5.5 2.7-1.3 3.3-1-1.7-1.6 1 2 1.1-3.3 2.5-3.9-2.4-1.6 1 .4 5.6-3.2 2.3-.2 2-2.9 2.6-2.6-.8-1.2 1.1.8 3-1.6 1.3.2 2.3z"/><text class="state__label" x="604.4" y="63.8" dx="0" dy="0">ME</text></g><g class="state state-MI"><path class="state__path" d="M403.8 59.3l2.7-1-2.3 2.5-4.7 3-.5-1.5zm34.6 31.4l1 2.5-1.5.3zm-19.7 11.9l-1.6-.7.5-3.3-2.2.2.3-5-3.4-1-.2-1.9-4.1-1.2h-3.4l-2.6-1.2-10.8-2.2-.9-2.3-2.2-.8 4.2-2.1 1.7-2 4.3-1 9.2-8.4 3.4-1.6 3.4.8-4.8 3.2-2 3.7v2.7l2-2.2h3.6l3 1.3 2.5 3.9 4-.6 3.4 1 4.8-3.5 6.8-1.1 5.3-2-.6 4 5.2.7 1.6-1.6 2.6.2-.6 3.8 4 3-5 1.4-3-1.4v3l-3.3-2-4.5-.8-2 2-6.5 1.3-.5 2.3-1.8.7-2.7-1.4-1.6 3-.6-2.4-2.7 6.5-2.7 4.2zm49.1 44.5l-14.7 2.4v-1l-21.9 2.4 2.2-2.2 1.9-4.7 1.3-5.9-.6-6-4.3-8.3.8-3-1-3.2 1.7-4.8-.2-5.9 6-7.2.2 5.7 1.5-.2.9-2.5-.6-5 4.6-2.3-2.5-2.3 3.3-3.7 3.5 1.6 2.6-.1 1 1.7 7 1.7 2.8 4.3-2-.3 1.9 2.5.7 8-1.8 1.1-1 4.4-2.4 1.4.5 3.7 2.3.7 4-5.6 3.4-2.5 3.5 3.1 2.5 9.7 1.5 2.2-1 6.9-1.4-1.9-1.6 2.4.3 2.2-2.4 2.3v3.7l-1.7 1.5zm-9.2-61l-3-.1 1.6-2z"/><text class="state__label" x="442.5" y="111.8" dx="1%" dy="2%">MI</text></g><g class="state state-MN"><path class="state__path" d="M326.6 130l.1-26.7-2.5-1.6-1.5-3.5 1.9-1.2 1-3-.2-5.7-2.2-4.4-.3-13.4-2.7-8.3V53l-1-3.8h20.4v-5.4l3.1.8 1.6 8 4.2 1.7 4.3.2V56l3.5-.5 2.5-1.5 7.1 2.6 1.2 3.3 1-2 2.1-.2 1.2 1.9 2.5.3 1.5 2.3 2.5-.6 4.4-2.8.9 2.1 7.5-.2.4 1h4.3l-2.8 2-8 3.6-4.5 4-2.3 3.4-7 6.2.8 1-2.5.9.3 8.5-4.7 3.2-1.3 4.4 2.7 2.5-1 1.3-.2 7.8 2.4 3 6.9 3.2.4 2 5 2.9 2.2 3.7.5 3.5-13.3.6-17.6.5z"/><text class="state__label" x="348.7" y="89" dx="0" dy="0">MN</text></g><g class="state state-MS"><path class="state__path" d="M427.6 321l-.9.8-4.6-1-6.2 2.3-2.2 1.7-1.4-.5-1.2-3.7-1.4-.8-.7-3.8 1.2-3.2-21.2 1.3-2.8-1.4 1.2-2.5-.1-3.9 1.3-.4.7-4.4 1.7-.8 2-3-1.7-.4 3-3.4-2.8-1.9 1.6-2.1-2.2.1 1.1-4-1.4-1.6.8-2-.7-4.3-1.4-2.1 1.2-2.1 1.9-6.7 4.5-4.2-.6-2.6 2-3.7 2-1.1-.9-1.4 25.3-1.8 1 1.5.2 7.6-.7 13 .2 13.2-.5 4.7.3 10.2 1.8 11z"/><text class="state__label" x="409.3" y="287.2" dx="0" dy="0">MS</text></g><g class="state state-MO"><path class="state__path" d="M406.9 231.5l.6 2.2-2 2 1.4 1.4-1.6 1.9-7.6.5 2.7-3.6.7-2.4-1.3-1.6-28.2 1.4-24 .6-.1-7.4-.5-31.8-2.4-1-.9-2.4-2.4-2.5 2-5.5-2.5.4-1.6-1.9-1.2-.4-.8-3.2-2-.8-1.2-4.2 8.3.1 19.5-.5 16.7-1.1 3.8 3.3-.8 1 .2 4.6 1.4 4 8.1 7.5.2 3 1.3 1.9 1.2-1.4 4.1 1.4-.2 3.3-2.2 4.5 1.9 3.5 3.4 1.6v1.4l5.2 2.2.2 3 1.4 1.7-.7 2.7 4.4 3-.4 5.7-2.1-.2-.3 2h-.9z"/><text class="state__label" x="371.8" y="205.5" dx="0" dy="0">MO</text></g><g class="state state-NC"><path class="state__path" d="M498.3 220l16.3-1.9 26-4.6 24.8-5.2 2.3 4.6-2-1.1-1 2.9-7 4.4 7.4-2.2 1 5 .1-3.8 1-1.5 2 1.5.8 3.5-2 1-2.1 4.2h-9.2l5.4 1-.5 3.8-1.6 2.7 4.7-2.7h1.3l-1.6 2.9-.6 3.5-1.9-.7-5.7 2.2-4.4 4.3-1.7 2.5-1 6.3-2.8-.4-4 1.7-16.2-11.5-13.2 2-.4-2.2-3.4-2.2-16.2 1.8-8 4-14 2-.5-3.2 3.3-1.6-.3-2 2.7-2.5 3.4-.4 4.2-3.7 1.8-2.8 3-2.3.3 1.5 2.6-2.6 4.2-.7 1.6-3.7h1.2zm73.7-1.3l1.4 2.6.4 5.5-4.4 2 3.8-2.5.2-3.1z"/><text class="state__label" x="528.1" y="230.7" dx="0" dy="0">NC</text></g><g class="state state-OH"><path class="state__path" d="M484 194.5l-3-1.7-.9-2.6-2.5 2.2-5.8-.1-7.2-1-2.5-3.8-4.4.3-4.6-38.3 14.7-2.4 5.1 2.4h3.2l3 1.4 4.7-2.7 3.2-.1 3.3-4.1 8.7-5.2 3.2 19.7-1.5.5 1.3 5.1-1 1.8-.3 8-3.4 4.2-2.9.1-2.7 3.8.6 3.8-1.5 1-2-2-.9 2 .3 4.7-1 2z"/><text class="state__label" x="477.9" y="167.5" dx="0" dy="0">OH</text></g><g class="state state-OK"><path class="state__path" d="M347.6 233.9l1.4 11.3 1 3.4.1 9.6-.4 3.2.3 14.9-4.9-1.5-4.3-3.2-.9 1.3-5.7.4-2.1-.5-2.7 1.6h-4.3l-2.2-1.8-2.2.7-.4-1.7-3.5 3-.4-1.8-2.7.7-3-2.4-2.2 2-.8-2.2-5.2-2.4-6-.2-4-1-.3-2.7h-5.6l-3.3-2.8 1.2-28.8-12.6-.6-22.7-1.4.5-7.5 11.3 1 29.6 1.3 23.9.7h33z"/><text class="state__label" x="313.6" y="247.4" dx="0" dy="0">OK</text></g><g class="state state-SC"><path class="state__path" d="M542.2 253.9l-3.1 2.1-3 5.7.2 3.5-1.8 2.7-2.6.3.3 1.7-4.5 5.2-5 2.9.4 1.8-2.4 1.9-2.6 3.6-2.8-.7-.5-3-1.7-2.7-2.4-.8-2.3-6.2-3.3-1.1-2.4-4.3-3.8-1.8-2.2-3.1-3.3-1.5-2.1-2.4-2.4-4.6-1.7.3-4.3-2.6-.2-1.5 2.1-3.5 8.1-4 16.2-1.8 3.4 2.2.4 2.1 13.2-2z"/><text class="state__label" x="513.9" y="257.9" dx="0" dy="0">SC</text></g><g class="state state-TN"><path class="state__path" d="M498.3 220l.1 3.8h-1.2l-1.6 3.7-4.2.7-2.6 2.6-.2-1.5-3.1 2.3-1.8 2.8-4.2 3.7-3.4.4-2.7 2.5.3 2-3.3 1.6.4 3.2-15.3 1.8-30.8 2.8-25.3 1.8 1.3-.4 1-3.5-.6-3.3 2-1.1-.1-3 3.3-2.2-1-1.7 1.6-1.9-1.4-1.4 2-2-.6-2.2.8-.1h.9l16-1.3-.7-2.7 2.6.6 15.8-2 7.2-.1 6.7-.8 12.1-1 7-1z"/><text class="state__label" x="445.3" y="237.7" dx="0" dy="0">TN</text></g><g class="state state-UT"><path class="state__path" d="M121.7 206.5l4.5-23 1.2-2 9.2-47.8 5.7 1.2 26.2 4.4L166 154l22 3.2-8.2 59-16.6-2.4L135 209z"/><text class="state__label" x="155.2" y="177.8" dx="0" dy="0">UT</text></g><g class="state state-VA"><path class="state__path" d="M559 188.3l.8-.1-.8.1zm9-3l-3 5.6v4.1l-.8 3.7-1.7 2-1.2-3.4.1-3.5 2-6.4zM493 206.5l.8 2.6 3.2 1.8 3.4-2.6 2 1.3 10-5.8-.4-2.2 2.4-5.2.3-3.2 1.5-1.4.4-4.6 4.8 1.4 2.1-6.9 2-.5 3.7-4.8-.2-5 7 3.6.6-2.9 3 .7-.4 1.8 4.9 1.9 1.6 1.8-.7 2.6-1.5 1 .8 3.7 2.6-1.4 1.4 2.6h3.7l5.3 2.8-.6 1.1 2 7.3-2.3 1.5 3 1.9-2.2 2.3 6-.6 2.3 5-24.7 5.3-26.1 4.6-16.3 1.9-23 3 6-2.8.2-1.7 2.5-.8 1.1-3.7 4.3-2.9z"/><text class="state__label" x="529.3" y="200.8" dx="0" dy="0">VA</text></g><g class="state state-WV"><path class="state__path" d="M492.9 206.6l-4-1.5-2.5-3.2-1.8-4-.5-3.4 3.1-1 1-2-.3-4.7 1-2 1.9 2 1.5-1-.6-3.8 2.7-3.8 2.9-.1 3.4-4.1.3-8.1 1-1.8-1.3-5 1.5-.6 2.2 13.4 11.6-2 .9 7.7 6.6-6.6h4.1l2.3-3 4.7.5 2 3.7-.8 3-6.9-3.8.2 5-3.7 4.9-2 .5-2 7-4.9-1.5-.4 4.6-1.5 1.4-.3 3.2-2.4 5.2.3 2.2-10 5.8-1.9-1.3-3.4 2.6-3.2-1.8z"/><text class="state__label" x="505.7" y="187.9" dx="0" dy="0">WV</text></g><g class="state state-WI"><path class="state__path" d="M389.3 143l-1-1.8-3.9-1.3-1.3-3 1-4.4-1.8-3.7-.5-3.5-2.1-3.7-5-2.9-.5-2-7-3.2-2.3-3 .1-7.8 1-1.3-2.6-2.5 1.3-4.4 4.7-3.2-.3-8.5 2.5-1 2.5.2 6.8-2.8 2.5-1.6.8 1.5-1.3 4 2.2-1.3 3 1.4 2.2.8.9 2.3 10.8 2.2 2.6 1.3h3.4l4.1 1.1.2 1.9 3.4 1-.3 5 2.2-.2-.5 3.3 1.6.7-2.4 2.3-1.3 3.2.7 3 3-4.7 2.2-.5 1-4.7 2.2-1 .2 2-4 9.4.3 4.4-2 3.4.5 4.7-1.6 4.4.5 5.2 1.8 3v4.4l-12.4 1z"/><text class="state__label" x="394.2" y="111.5" dx="0" dy="0">WI</text></g><g class="state state-ND"><path class="state__path" d="M325.7 94l-21.4-.4-23.9-1-12.8-.7-18.7-1.5 3.8-44.5 17.8 1.3 13 .8 19.6.8 16.2.3 1 3.8-.1 9.3 2.7 8.3.3 13.4 2.2 4.4z"/><text class="state__label" x="286.6" y="70.8" dx="0" dy="0">ND</text></g><g class="state state-SD"><path class="state__path" d="M326.6 145l-2-.3-.7-2.3-7-3-7.7 1.3-4.2-2.6-.3-1-16.5-.6-18-1-25-1.7 2.5-29.5 1.2-13.9 18.7 1.5 12.8.7 24 1 21.3.4-1.1 3-1.9 1.2 1.5 3.5 2.5 1.6v26.8H325l1.5 6.3-.8.2-1.2 5.2z"/><text class="state__label" x="287.1" y="115.1" dx="0" dy="0">SD</text></g><g class="state state-WY"><path class="state__path" d="M188 157.2l-21.9-3.2 2.4-14.7 5.7-36 1.3-7.9 20.3 3 20.7 2.8 31.2 3.1-2.5 29.5-2.5 29.5-24-2.3z"/><text class="state__label" x="207.9" y="129.9" dx="0" dy="0">WY</text></g><g class="state state-TX"><path class="state__path" d="M320.4 358.6l-3.8 4.6-2.9 6-.6 6.8 1.9 6.1-1.9-3.7.1-9.5 1.5-3.4 2.4-2.8 3.8-5.9 5.1-2.4zm-120-62l-.5-3.3 14.6 1.6 29.3 2.5 5-66.4h.4l22.7 1.4 12.6.6-1.2 28.8 3.3 2.7h5.6l.4 2.8 3.9 1 6 .2 5.2 2.4.8 2.2 2.2-2 3 2.4 2.7-.7.4 1.8 3.5-3 .4 1.7 2.2-.7 2.2 1.8h4.3l2.7-1.6 2.1.5 5.7-.4.9-1.3 4.3 3.2 4.9 1.5.9 1 4.3.2.2 7.9.3 15 2.8 3v3.6l1.4.6.5 3.1 1.9 1.7-.3 5.7-1.8 3 .2 8-2.6 4 1.4 1.4-4.1.7-6 2.8 1-1.6-2.8.7.4-3.7-3.2 1.5 1 5.6-2.8 1.9v1.3l-3.2 3.2-8.3 4-2.8.3.5-1.8-3.8 1.9 1 1.9-2.4 1.2-3.2-1 .4 2.9-5.6 2.2h2.3l-2 3.7-2.3-.3 1.4 2-4 12.8 3.3 8v2.5l1.8 2.1-4.8 1.1-1.4-2-7.2-.5-7.5-4.2-4.8-1.3-2.6-7-1.8-2.3-.6-8.4-4.6-3-.4-2.8-1.7-2.5-2.8-1.6-.3-2.7-3.9-7.2-.3-3.1-4.8-5.5-2.2-1-1.7-3.1-9.6-1.5-6.9.4-3.2 6.1-3 4.5h-2.4l-3-3-7.6-3.9-.3-1.3-4.3-3.3-1.5-4.4.4-4-2-3.2-1-3.8-3.5-2-3.3-3.2-.7-2-3.6-4-2.6-1.4-2.7-4.7z"/><text class="state__label" x="289.8" y="307.7" dx="0" dy="0">TX</text></g><g class="state state-NM"><path class="state__path" d="M168.4 299.4l11.5-83.3 24.9 3.2.4.2 24.5 2.5 20 1.5-.5 7.5h-.4l-5 66.4-29.3-2.5-14.6-1.6.5 3.3-20.9-2.5-.9 6.7z"/><text class="state__label" x="209.7" y="258.5" dx="0" dy="0">NM</text></g><g class="state state-CO"><path class="state__path" d="M261 224.5l-11.3-1-20-1.5-24.5-2.5-.4-.2-25-3.2 8.2-59 30.7 4 24 2.2 22 1.6-.9 14.8z"/><text class="state__label" x="223.4" y="191.4" dx="0" dy="0">CO</text></g><g class="state state-NE"><path class="state__path" d="M334 173.2l1.2 4.2 2 .8.8 3.2 1.2.4-30-.2-19.3-.5-26-1.4.9-14.8-22.1-1.6 2.5-29.5 25 1.8 18 1 16.5.5.3 1 4.2 2.6 7.7-1.4 7 3.1.7 2.3 2 .3 1.9 6.5 1.5 1 .4 6.8 2.4 3 .4 8.1z"/><text class="state__label" x="289.8" y="158.2" dx="0" dy="0">NE</text></g><g class="state state-IA"><path class="state__path" d="M334 173.2l-.8-2.8-.4-8-2.4-3-.4-6.8-1.5-1-2-6.6-1.9-3.2 1.2-5.2.8-.2-1.5-6.3h1.5l24.8-.2 17.6-.5 13.3-.6 1.7 3.7-.9 4.4 1.3 3 4 1.3.9 1.9 2.5 3.9 2.8 1.4.3 4-1.7 4-3.5 2.1-4.2 1-.3 3 1.7 1.3.1 3-1.5 1.3-.3 2.6-2.3.8-.6 3.5-3.8-3.3-16.7 1.1-19.5.5z"/><text class="state__label" x="358.5" y="150.7" dx="0" dy="0">IA</text></g><g class="state state-IN"><path class="state__path" d="M423 210.8l-.4-3.6 1.1-1.4 1.7-5 2.5-3.8-.3-3.8-1.9-2.1 1-3.5-3.2-35.2 2.5 1 5.2-2.5 21.8-2.3.1 1 4.6 38.2.5 4.7-4.3 2-2.9-.1.8 2.7-4.1 4-.8 4.2-3 .3-3.4-1.4v3l-2.9.8-.5-1.3-2.8 1.5-.3 1.8-6.4-2.2.6 1.7-4.2-.5z"/><text class="state__label" x="439.9" y="177.9" dx="0" dy="0">IN</text></g><g class="state state-PA"><path class="state__path" d="M560.3 159.9l-1.6-.2-2.4 2.3-19 4-21.3 3.9-11.6 2-2.2-13.4-3.2-19.7 7.4-5.5.6 3.8 10.8-1.8 25.6-5 10.3-2.4 4.2 2.7.7 3 4.5 2-1.4 1.4-2.1 8.3.7 3.1 1.1-.3 5.3 5.3-3.8 3.4.3 1z"/><text class="state__label" x="531.2" y="149.7" dx="0" dy="0">PA</text></g><g class="state state-NY"><path class="state__path" d="M575.5 138.4l-.9 3.2 2.6-3 9.8-3.2 1.8-2.6 3.2 1.4 2.1-1.2-11 8.5-4.3 2-6.3 1.4v-1.6l.2-4.5-9.6-3.2-4.5-2-.7-3-4.2-2.7-10.3 2.3-25.6 5-10.8 2-.6-4 4.7-4.6 3.5-4.3-2.5-3-1-3.8 4.2-2.3 9-1.5 3 1 5.9-1.5 4.2-4.3 2.8-1.7-2-3.8 1.7-1.1-3.1-2 .3-2 3.6-3.2 4.7-8.4 4.5-3.5 4.8-.8 10.1-2.7.7 6 1.7 2.2-.3 3.6 1.8 9 1.9-.4 3 12-.3 10.6 2.3 11 1 1-2.3 2.2z"/><text class="state__label" x="549.3" y="114.7" dx="0" dy="0">NY</text></g><g class="state state-VT"><path class="state__path" d="M581.8 110.2l-8.3 1.8-2.9-11.9-1.9.4-1.8-9 .3-3.6-1.7-2.2-.7-6 18.5-4.7.4 8.9-3.5 2.9 1.1 3-.4 4.4-1.4 3.7 1.4 7.3-.7 1.8z"/></g><g class="state state-NH"><path class="state__path" d="M581.8 110.2l-1.6-3.2.7-1.8-1.4-7.3 1.4-3.7.4-4.4-1.1-3 3.5-3-.4-8.8-.1-3.4 3-1.9 2.4 6.5 2.6 8.2 3.5 12.8 4.1 3.5-.4 3-3.5 1.9-.6 1.9z"/></g><g class="state state-MA"><path class="state__path" d="M606.1 123l2 1.4-3 1zm-32.6-11l8.3-1.8 12.5-2.7.6-2 3.5-1.8 1.1 2.5 2 .3-2.6 2v4.4h3.2l3.6 5.5 3.2-.1 2.3-1.8 1.4 1.8-7.2 3.5-1.8-2-1.1 3.3-2.2 1.1-1.4-2.3-.1-.5-1.8-.7-1.3-3.1-4 1.2-.5-.1-17.9 4z"/></g><g class="state state-RI"><path class="state__path" d="M600.3 124.2l-2-.3.6-2zm-1.5-2.8l-2.6 1 1.2 4.4-4 2 .4-1.5-2.2-8.5 4.1-1.2 1.3 3.1z"/></g><g class="state state-CT"><path class="state__path" d="M575.5 138.4l-1.2-1.5 2.3-2.3-1-.9-2.3-11 17.9-4h.4l2.2 8.6-.4 1.5-4 1.7-7 1.7-1.8 2.4z"/></g><g class="state state-NJ"><path class="state__path" d="M559.6 162l.7-2.1 2.9-2-.3-1.1 3.8-3.4-5.3-5.3-1.1.3-.7-3 2.1-8.4 1.4-1.4 9.6 3.2-.1 4.5-2.2 3 .8 1.6 2.7-.7.4 6.8.7 3.2-2.2 6.4-2.3 2.9-1 4.4-1.6.6.5-3.4-6.6-1.8-2.4-3.2v-.4z"/></g><g class="state state-DE"><path class="state__path" d="M559.3 162.7l.1.4v-.4zm.3-.8v3.8l2.5 2 .6 3 3.2 3.1h1.3l1.5 5-7.3 1.4-5.1-18.2 2.4-2.3 1.6.2z"/></g><g class="state state-MD"><path class="state__path" d="M559.8 188.2l-.8.1.8-.1zm3.6-.8l-2.3 1.1-.3-3.4-1.5-1.3-3.8-.2-1.4-2.5 1.5-3-2.3-1 1.4-1-1.7-6.4 2.2-3-.4-1.9-3.6 6.3 1 2.6-1.3 4 1.2 3.7 2 1.9 1.3 4-4.1-1.6-1.6.4-2.6-2.4-2.2 1.3-1.3-2 1.3-2 .7-2.6 1-1.6-2.6-.2-5-1.9.5-1.8-3-.7-2-3.7-4.6-.6-2.3 3-4 .1-6.7 6.6-1-7.7 21.5-4 18.9-3.9 5.1 18.2 7.3-1.5-.7 6.5z"/></g><g class="state state-MT"><path class="state__path" d="M247.7 104.3l-31.2-3.1-20.7-2.7-20.3-3-1.3 7.7-3-4.8-1.5 2.3-3.5.6-5.5-1.5-.3 1.4-3.5-1.5-1.9 2-.9-1.4-.6-5.3-3-1.9.5-2.8-2.6-4.5.4-4.1-1.7-1-3.8 2.2-2.2-2 .6-3.1 2-1.2-.7-3.7 1-1 2.7-6.3-3.2-.7-2.4-3-2.9-5.8-1.4-1.9-1.7-4.1.5-.8-2.3-6.1 3-14.7 21.4 4.3 19.4 3.6 22.5 3.4 17.4 2.3 23.8 2.7 11.9 1-3.8 44.6z"/><text class="state__label" x="194.1" y="67.9" dx="0" dy="0">MT</text></g><g class="state state-CA"><path class="state__path" d="M46.4 234.5l2.4 1.4-4.3-.8zm-6-.8l3.5 1.9h-2.2zM59 246.8l2 2.9-2.4-1.1zM29.1 107l28.1 8.2 16.2 4.3-11.1 43.2.5 1.1 18.9 28.5L93 208.7l3.2 5.4 9.3 13.5 4.3 6.8-.4 2 1.7 2.6v4l2.7 2.5-1.3 1.8-3.2.5-1.2 2.1-1.2 6-2.5 1.4-.7 5.6 2.1.5v2.9l-3.5 1.1-29.5-3.5-1.3-2.3 1-6.2-2.8-5.7-4.1-5.4-4.2-1.2.8-1.5-1.5-3.3-3.8-.9-3.1-1.8-.7-2.8-2.8-2.8-4.9-2-5.4-1.3-1.8-2 1.3-4.6 1-3.9-3-2 1.5-2.3-4.3-5.3-2.1-8.3-1.7-1.8.3-5.7 1.6.2.8-4.2-2.7-1.1-2.3-4.2.7-2.7-.7-2 1.3-4.4 1.2.1-.8 3 2.8 2.2.1-2-2-5.1 2.5-1-2.5-1.7-.8 4.1-5.4-5 1.6-1.2-1-5.2-1-.8-3.8-7.5 1-1.8v-4.3l2-5.3-2-6.2-2.2-3.5.3-2.3 6-7.2.3-2.4 2-4 .5-4.4-1-.8z"/><text class="state__label" x="61.3" y="190.1" dx="0" dy="0">CA</text></g><g class="state state-AK"><path class="state__path" d="M35.4 390l.3.4-1.3.2.3-1zm-3 .4l.4.7 1-.4-1 1.2 1.4-.4-.3.6-1.2.3-.9.8-1-.2-1.8.6-.6-.4.6-.3 1.8-.3.4-1 .9.2-1-.8zm-5.1 2.8l-1.1.9-1.9.7 1.7-1.9.8.2v-.8l1.3-.5.6.4-.2.6zm-56-18.5v-1l1.3.7.5 1.2-1.7-.4zm38 19.7l1.9 1-1.7-.3-1.3-.5zM118 366l1-.2.5-.6 1 .6 1.6.2.3 1-.7.4-1.5-.5 1.2.7 1-.4.8 1.2-.5.4-2-.7.6 1-.7.7-2.6-2.1-.2-.8zm4.7-1l1.1-.3 1.5 2.2-1.4-1.5-.2.2 2 2.2v1l-1.2 1.8-.4-1 .2-1-1.2-1.3-.7-1.8-1-1.5zM66 384l.3 1h-.8zm68.5-7.9l.6.2v1zm-82.8 10l-.1 1.1-1-.5.3-.9zm83.6-9.7l.5.2.4.9-.7.3zm-4.4.7l-1.5-.7.6-1-.6-1-.4.7h-1l.3-1.2-.4-1 1.2-.2.7 1 1.5.5.9 1.1 1 .6h-1l1.6 1h.4l.9 2.7-.9.2-.5-.9h-.8l-.3-1.1-2 .1zm-94.6 12.3l-.5 1-.2-.7zM121 370l.4.3v1.2l-.8-1.5zM75 374.4v1h.8l-.5 1-1.7-.4 1 .6-.9 1.4-1.4.3-1.4 1.6h-.6l.6-.9.2-1-1.2 1.4-.7-.7v-1.1l-.8-.8.8-1.2.9-.4 1 .4-.2-1.2.8-.4.3.9.5-.5-.4-.9 2 .4v.4l.9-.7zm55.4-3.5l-.6.8-.7.1-1.4 1-.7-2-1.3-.6.3-.5 2.3-.3.7.8zm-.9 1.3l1-.3.2.7-1.2.2zm-8.4-3.3l.4-.3 1.4.3.3.8 1.6 2.9.6 2.1h-.5l-2-2.3-1-1.8-1-.8zm5.9 6l-.3.2-.6-2h.6l-1.3-1-.4-.8.6-.7 1 1 .7 2-.2.2zm-91.2-33.1l1.2.4-.5.8-1.2-.3-.8 1-.3-1-.8-.6-.4-1-.9-.7-1.2.3-.7-1.1.8-.9 1.4 1 1.1-.4.7.6.1.8zm51 17.5l-.3 2.2-.4-.3.2-1.3zm-45.8.3l.1 1.3H40l-.5.6-2.7-2.2.3-.8.8.3.7-.4 1.7-.2.9.7zm43.6 3.2h-1.5l-.2.6-.3-1.3-.8 2.5-.6-.1-1.1 1.5-.1-.4-1.5 1.3h-1l-.4.4-1.1-.4.2-.9 2-1 .1-1-1 1-1-.6.2-1.5 1-2-.3-1.7 1-.3 1.5-1.4 1 .6.9-.4-1.1-.9.2-.5H79l-.8.5-.3.8-1 .3-.7 1.3-1.2 1.3.4.5-1.5 1.1.6.4-.4 1-.8.4v.8l-2 .7.2.7-.9.2-.2 2 1.2-.4 1.2 1.2-1 1.2H71l-.2 1.2-.9 1.5-2 .4v.6l-1.5.5-.5 1.2-.7-.1-1.7 1.4.7-.3.1.9-.8.8-1 .2-1 1-1.5.4-.4 1-1.2-.1-.5.7.7.8-.5 1-3.3.5v1l-.8.4.4-1.2-.4-.3-2 1.1-.3.6-1-.3-1 .7-1-.1.7-1.2h-.8l-1.2 2.4-1.6.1-.3-1.4v1.5l-1 .4-.4-1v.8l-1.2.6-.7.9-1.8-.2-1 .8-1.2-.2v-1l.7-.2 1-1.2.3.2 1.8-.6.6.1.6 1 .2-1.2 1.3-.2v-.4l1-.3.1-.6 1.1-1 1.3-1 1.6-.2.6.5.7 1v-.8l1.6.3-.8-.6.6-1.7 1.7-1.2 1.4-.5 1.2-.7.8.2v-1.4l1-1 2.2-1.5-.3-.3.5-2.6h.6l-.6-1 .5-.8 1-1v-.8l-2.8 1.1-1-1 .2-1-.8.6-.3 1.2.3.8-1 .3-.8-2-.8-.8-.5.8-.8-.8-.3-.9-2.7 1.4-1.2.9v-2.6l-.5-1.1 1.1-1.2-.7-2.4-.5-1.2.5-2.2-1 1.8v1.2l-1.8.6-2-.1-.6-.7-.8-2.1-.8-.4-.5-1.3.8-.6.4-1-.6-.2.4-.5-.5-.8-.8.3v-1l-.6-.7.5-.5-.7-.7.9-.1-.6-.9h1v-1l2-2.2.8-.2-.1-1.3 1.4-1.7 1-.1 1.4 1.4 1.6-.8 1.2-1.5.5.5h2l.9-1.2v-2.3l-1.2-1.7 1.7-.4v-.5l-.7-1.2-.7.8-.4-.2-2.2 1.1-.7.9v-.8l-.6.3-.7-.7-1.7-.5-1.8.4L44 337l-.4-.8.3-.7-.8-1.3 1.2-.7-2.1-1-1.3-1.3.2-.5 5.6-2.5 2.9-.7 1 .1.3.6-.8 1.5.3.7 2.2.1 1.8.6.7-1 1.2.1-1-1-.8.3v-.9l-1-2.2h.6l.5 2 1.1.6-1-1.4.2-.9.8-.4-.7-.4h-2l-1.7-.9v-.7l-.3-1.7-2-2.5-1.3-1-1.1-1.2.8-.5.6-2 1.6.3h2l1.4-.6 1-1.3.5-2 1.2-1 1.2-1.4.6.4 1.3-.4 2.2-2 .6.2 2.6-.4 2.3-2.3.3.4 1.3.5v.5l-.7.9.8.2.9-1.4.8.8v.7l.7.4.3-.6 1.3-.2 1.7.4-.4 1.1 1.2.4-.2.5 2-.4 1.3.2 1.3-.3 2 .6.7.5h3.6l1.2.6h1l1.6-1.1 1.7.3 2.7 1.3h.8l9.3 47.2 1.2.2v-.5l1.5.4.5-1 1.4-.4.1 1.4 1.4.7.3.5 3.3 2.1 1 1.6 1.2-1.7.6-.2-.1-1.5.2-1 1.8-1.4 1.4.9.6 1.3 1.4.4 1 1.2 1.2.3 1.7 1-.2.4 1.6 1.6 3.5 3-.1.8h.8l.1.8 1 .1.4 1 .6-.3 1.6.6 2 .1.2.5 1-.2.6.9v.7l.4 1.3.9 1-.2 1.5-.7 1.6-.9.1-1.2-1.6.5-.9-.8-1.6.4 1.4-.3 1.1-1.1-.1-1-.5.2-.5-.8-1.4-.6 1.7-.6-.9.5-1.5-.4-.8-.1 1.3-.7.6-1.3-1.4.8-.8-.5-.8.2-.9-1.9-.5-.3-.9-2.2-.1.2-1-1-1.6-1.8-1.4-.4-.6-1.3.2-2.2-2.5-1.2-2.1h-.2l.8 2 1 1.1.7 2h-.8l-1-.7-.8.5-.2-1.1-.6-1-.5.5-2.2-.8v.6h1.3l1 .7 1 1.2-1.3.7-.2.6-4-2v-.6l-1.2-.6-3.6-1.1-1-.4.7-.5-.6-1.6-.2.5-1 1-1.8.1-1.4-.5v-.6l-.8.4-2.9-.2-2.6 1-.6-.5-2.3-.7.2-.8-1.3.7-.5-.5-1 .1.5-1.1-.9.3-.2-.5-1.3.3.2-.6-.7-.7-1.4.5-.7-1 .1 1.2-1.4.5.4-1.5h-.6v1.2l-.9.7 1-.3.1 1.4.2-.5.6.8-1 1.2h.6v.8zM7.4 393l.7-.5.4.6-.5.9H6.8l-2.1-.5H6zm-24.4-8l-.3.5-1-.3zm14.4 7.6l.7-.9.6.5-.8.7zm-1.3-.7l-.6.7-.5-.8h.7l-.7-.8h1zm3.2.6l1-.4-.3.8 1 .2-.3.6-.8-.4-1.4.5.4-1.1zm76.4-20.5l-.1.6-2 .8-1.2-.4 1-1.3.5.2.5-1.6.8-.3-.3 1 1.3.5-.2 1zm14.8-12.5l-.2-.3 1.1-.4zm-65.7-4.4l-.7-.3-.6-1.1 1.4.9zm64.8 5.6l-.4-.5.4-.8 1.2.4zm-3 2.8v-.4l1.6-2.2.6-.2-1 1.2-.2 1zm-34.8 6l.2-.8 1-.5-.5 1.2zm81.4 11l-1.8-1-.6-1.3.2-.2z"/><text class="state__label" x="74.5" y="342.6" dx="0" dy="0">AK</text></g><g class="state state-NV"><path class="state__path" d="M121.7 206.5l-1.4 11.9-1.7 2.3-2.2-2.2-4.7-.4.2 3.7-1.2 6.1.7 3-1.6 3.5-4.3-6.8-9.3-13.5-3.2-5.4-11.3-16.4-18.9-28.5-.5-1.1 11.1-43.2 25 6.1 6.5 1.4 21 4.6 10.7 2.1-9.2 47.8-1.2 2z"/><text class="state__label" x="100.3" y="166.6" dx="0" dy="0">NV</text></g><g class="state state-OR"><path class="state__path" d="M104.9 127l-6.5-1.4-25-6-16.2-4.4-28-8.2-1.3-5.4 1.9-4.7-.5-2.5 5-7.2 3.4-5.6 2.6-7.3 1.9-6L45 64l2.8-9.4 2-5 4.4-.8 2 2.3 1.6-.2 2.4 4.6-.5 4.7 4.3 2.3 4.9-1 3 .4 5.7 2.9 3.5-.5 3.6 1 13.5-.7 20.7 5 .5 2.8 2.3 1.5.2 2.7-3.3 3-1 2.6-3 4.8-1.5.1-2.4 3.5-.6 2.8 3 2.4-2.2 4.3z"/><text class="state__label" x="74.7" y="90.3" dx="0" dy="0">OR</text></g><g class="state state-ID"><path class="state__path" d="M168.5 139.3l-26.2-4.4-5.7-1.2-10.7-2-21-4.7 6-26.8 2.2-4.3-3-2.4.6-2.8 2.4-3.5h1.5l3-4.9 1-2.5 3.3-3-.2-2.8-2.3-1.5-.5-2.8-.7-5.3 8.6-38 9.6 2.1-3.1 14.7 2.3 6.1-.5.8 1.7 4.1 1.4 2 3 5.7 2.3 3 3.2.7-2.7 6.3-1 1 .8 3.7-2.1 1.2-.6 3 2.2 2.1 3.8-2.3 1.7 1-.4 4.2 2.6 4.5-.5 2.8 3 2 .6 5.2 1 1.3 1.8-1.9 3.5 1.5.3-1.4 5.5 1.5 3.5-.6 1.5-2.3 3 4.8z"/><text class="state__label" x="137" y="98.3" dx="0" dy="0">ID</text></g><g class="state state-WA"><path class="state__path" d="M72.6 23.3l-1.3.6 1.6 3.4-.5 1.7-2-2.4-.3-3.6 1.2-1.7zm46.3 46.4l-20.7-5-13.5.8-3.6-1.1-3.5.5-5.8-2.9-3-.4-4.8 1-4.3-2.3.5-4.7-2.4-4.6-1.6.2-2-2.3-5-2.3 1-3.5 3.1-1.5-2.7-1.1.4-2.5 3 .4-2.7-2.7-.1-4.5.6-5.5-1.2-4.9 1-5.4 6.8 5.7 11.4 4.2-.7 3.5-2.9 2.4 4.7-2.3-3.2 8.6-1.6-1-1 2.3h2.3l.9-2 1.9.1.4-4.3 3.7-4.9-2.4-2 .2-2h1.8l-2.5-4 2.2 1 .9-4-2.2-.3.8-3.8 9.4 2.8 24.5 6.3 19.8 4.7-8.6 38z"/><text class="state__label" x="88.5" y="41.5" dx="0" dy="0">WA</text></g><g class="state state-AZ"><path class="state__path" d="M179.9 216.1l-11.5 83.3-25.4-3.7-20.7-12-22-13.3 2-3 3.4-1.1.1-2.9-2.1-.5.7-5.6 2.5-1.3 1.2-6 1.2-2.2 3.2-.5 1.3-1.8-2.6-2.4-.1-4-1.7-2.8.4-2 1.6-3.5-.7-2.9 1.2-6.1-.2-3.7 4.7.4 2.2 2.2 1.7-2.3 1.4-11.9L135 209l28.4 4.8z"/><text class="state__label" x="143.1" y="251.5" dx="0" dy="0">AZ</text></g></g><g class="state-boxes"><g transform="translate(645 85)"><rect class="state-box__background"/><text class="state-box__label" x="20" y="15">VT</text></g><g transform="translate(645 112)"><rect class="state-box__background"/><text class="state-box__label" x="20" y="15">NH</text></g><g transform="translate(645 139)"><rect class="state-box__background"/><text class="state-box__label" x="20" y="15">MA</text></g><g transform="translate(645 166)"><rect class="state-box__background"/><text class="state-box__label" x="20" y="15">RI</text></g><g transform="translate(645 193)"><rect class="state-box__background"/><text class="state-box__label" x="20" y="15">CT</text></g><g transform="translate(645 220)"><rect class="state-box__background"/><text class="state-box__label" x="20" y="15">NJ</text></g><g transform="translate(645 247)"><rect class="state-box__background"/><text class="state-box__label" x="20" y="15">DE</text></g><g transform="translate(645 274)"><rect class="state-box__background"/><text class="state-box__label" x="20" y="15">MD</text></g><g transform="translate(645 301)"><rect class="state-box__background"/><text class="state-box__label" x="20" y="15">DC</text></g><g transform="translate(645 328)"><rect class="state-box__background"/><text class="state-box__label" x="20" y="15">PR</text></g><g transform="translate(645 355)"><rect class="state-box__background"/><text class="state-box__label" x="20" y="15">PW</text></g></g></svg>