<svg style="transform: scale(2.2) rotate(-45deg);" width="18" height="18" xmlns="http://www.w3.org/2000/svg" xmlns:xlink="http://www.w3.org/1999/xlink"><use xlink:href="#read-more-arrow-a" transform="translate(4.5 8)"></use><use xlink:href="#read-more-arrow-b" transform="translate(9.5 5)"></use><use xlink:href="#read-more-arrow-c" transform="translate(9.5 9)"></use><defs><path fill="#fff" id="read-more-arrow-a" d="M0 .5c-.28 0-.5.22-.5.5s.22.5.5.5v-1zm9 1c.28 0 .5-.22.5-.5S9.28.5 9 .5v1zm-9 0h9v-1H0v1z"></path><path fill="#fff" id="read-more-arrow-b" d="M1.1.4C.9.2.57.2.4.4.2.57.2.9.4 1.1l.7-.7zm2.55 3.95c.2.2.5.2.7 0 .2-.2.2-.5 0-.7l-.7.7zM.4 1.1l3.25 3.25.7-.7L1.1.4l-.7.7z"></path><path fill="#fff" id="read-more-arrow-c" d="M.4 2.9c-.2.2-.2.52 0 .7.18.2.5.2.7 0l-.7-.7zM4.34.36c.2-.2.2-.5 0-.7-.2-.2-.5-.2-.7 0l.7.7zM1.1 3.6L4.34.36l-.7-.7L.4 2.9l.7.7z"></path></defs></svg>